<svg version="1.2" xmlns="http://www.w3.org/2000/svg" viewBox="0 0 247 324" width="247" height="324">
	<title>left-pattern-svg</title>
	<defs>
		<clipPath clipPathUnits="userSpaceOnUse" id="cp1">
			<path d="m247 304c0 11.05-8.95 20-20 20h-207c-11.05 0-20-8.95-20-20v-284c0-11.05 8.95-20 20-20h207c11.05 0 20 8.95 20 20z"/>
		</clipPath>
	</defs>
	<style>
		.s0 { fill: none;stroke: #ffffff;stroke-linecap: round;stroke-width: 20 } 
		.s1 { fill: #fc496e } 
		.s2 { fill: none;stroke: #ffffff;stroke-linecap: round;stroke-width: 2.7 } 
	</style>
	<g id="Clip-Path: Clip-Path" clip-path="url(#cp1)">
		<g id="Clip-Path">
			<g id="Layer">
				<path id="Layer" class="s0" d="m-120.7 367.1c-23.6 18.6-47.3 43.2-50 70-2.8 26.8 15.3 55.6 32.7 86.4 17.6 30.8 34.8 63.4 59.9 70.9 25.2 7.5 58.3-10 89.6-22.8 31.3-12.7 60.8-20.5 82.2-39.2 21.4-18.8 35.1-48.5 40-80.9 4.7-32.1 0.8-67.1-12.4-103.6-13.1-36.5-35.6-74.7-65.6-79-30.1-4.3-67.9 25.5-98.7 46.5-30.6 20.9-54.3 33.4-77.7 51.7z"/>
				<path id="Layer" class="s1" d="m-115.3 394c27.9 11.1 61.1 19.3 85.7 8.3 24.6-11 40.4-41 58.4-71.5 17.9-30.7 37.5-61.8 31.5-87.4-6.1-25.5-37.9-45.5-64.6-66.2-26.7-20.7-48.1-42.4-75.1-51.5-26.9-9.2-59.5-6.2-90 5.7-30.1 12-58.5 32.9-83.6 62.6-25 29.6-46.8 68.1-35.5 96.3 11.3 28.2 56 46.1 89.6 62.3 33.4 16 56.1 30.3 83.6 41.4z"/>
				<path id="Layer" class="s2" d="m-120.7 367.1c-23.6 18.6-47.3 43.2-50 70-2.8 26.8 15.3 55.6 32.7 86.4 17.6 30.8 34.8 63.4 59.9 70.9 25.2 7.5 58.3-10 89.6-22.8 31.3-12.7 60.8-20.5 82.2-39.2 21.4-18.8 35.1-48.5 40-80.9 4.7-32.1 0.8-67.1-12.4-103.6-13.1-36.5-35.6-74.7-65.6-79-30.1-4.3-67.9 25.5-98.7 46.5-30.6 20.9-54.3 33.4-77.7 51.7z"/>
			</g>
		</g>
	</g>
</svg>